<?xml version="1.0" standalone="no"?><!DOCTYPE svg PUBLIC "-//W3C//DTD SVG 1.1//EN" "http://www.w3.org/Graphics/SVG/1.1/DTD/svg11.dtd"><svg t="1579508322833" class="icon" viewBox="0 0 1024 1024" version="1.1" xmlns="http://www.w3.org/2000/svg" p-id="2146" data-spm-anchor-id="a313x.7781069.0.i0" xmlns:xlink="http://www.w3.org/1999/xlink" width="48" height="48"><defs><style type="text/css"></style></defs><path d="M311.202765 77.656661l-44.357254 45.921889c-12.212136 12.605086-12.212136 33.122375 0 45.824675l398.934898 412.416957c12.212136 12.7023 32.045857 12.7023 44.257993 0l44.3593-45.824675c12.214183-12.605086 12.214183-33.122375 0-45.822628L355.464851 77.656661C343.252715 65.052598 323.416947 65.052598 311.202765 77.656661L311.202765 77.656661z" p-id="2147" fill="#cccccc"></path><path d="M665.781432 444.357414 266.845511 856.774371c-12.212136 12.7023-12.212136 33.219589 0 45.824675l44.357254 45.921889c12.214183 12.605086 32.04995 12.605086 44.262086 0l398.933875-412.515195c12.214183-12.7023 12.214183-33.219589 0-45.824675l-44.3593-45.824675C697.827289 431.655114 677.993568 431.655114 665.781432 444.357414L665.781432 444.357414z" p-id="2148" fill="#cccccc"></path></svg>